<svg width="211" height="104" viewBox="0 0 211 104" fill="none" xmlns="http://www.w3.org/2000/svg">
<path d="M3.00044 54.5335C30.0898 56.2279 33.4566 1.6944 60.546 3.38879C87.6354 5.08319 85.952 32.3499 114.725 6.77758" stroke="#1E3D59" stroke-width="5.93497" stroke-linecap="round"/>
<path d="M4.0737 43.5209C31.1631 45.2153 33.1831 12.4952 60.2725 14.1896C87.3619 15.884 85.6785 43.1507 114.451 17.5784" stroke="#17B890" stroke-width="5.93497" stroke-linecap="round"/>
<path d="M37.7879 69.1021C36.0087 69.1021 34.4211 68.9242 33.0251 68.5684C31.6291 68.2399 30.4384 67.7198 29.453 67.0081C28.495 66.2691 27.7559 65.3795 27.2358 64.3393C26.7158 63.2718 26.442 62.0264 26.4147 60.603L31.0132 59.2481C30.9859 60.562 31.2596 61.6568 31.8344 62.5328C32.4092 63.3813 33.2304 64.0109 34.2979 64.4215C35.3928 64.832 36.6382 65.0373 38.0342 65.0373C39.3755 65.0373 40.4977 64.8731 41.401 64.5446C42.3317 64.2162 43.0297 63.7782 43.495 63.2308C43.9603 62.6559 44.193 62.0127 44.193 61.301C44.193 60.5072 43.9056 59.8776 43.3308 59.4123C42.756 58.9196 41.9758 58.5227 40.9904 58.2216C40.0324 57.8931 38.9375 57.5921 37.7058 57.3183C36.3645 57.0172 35.0506 56.6888 33.7641 56.3329C32.505 55.9771 31.3554 55.4981 30.3152 54.8959C29.2751 54.2937 28.4402 53.5273 27.8107 52.5966C27.2085 51.6386 26.9074 50.4342 26.9074 48.9835C26.9074 47.3411 27.318 45.9314 28.1391 44.7544C28.9603 43.55 30.151 42.6194 31.7112 41.9624C33.2988 41.2781 35.1875 40.936 37.3773 40.936C39.5397 40.936 41.4284 41.2645 43.0434 41.9214C44.6583 42.551 45.9175 43.4816 46.8208 44.7134C47.724 45.9451 48.2031 47.3959 48.2578 49.0656L43.5361 50.3794C43.5361 49.4762 43.3855 48.696 43.0844 48.0391C42.8107 47.3548 42.4001 46.7937 41.8527 46.3557C41.3052 45.8904 40.6483 45.5482 39.8819 45.3292C39.1428 45.1103 38.2943 45.0008 37.3362 45.0008C36.214 45.0008 35.2286 45.1513 34.38 45.4524C33.5589 45.7535 32.9293 46.1778 32.4913 46.7252C32.0534 47.2453 31.8344 47.8612 31.8344 48.5729C31.8344 49.4488 32.1629 50.1468 32.8198 50.6669C33.4767 51.1869 34.339 51.6112 35.4065 51.9397C36.5014 52.2408 37.6921 52.5419 38.9786 52.843C40.1556 53.0893 41.3326 53.3904 42.5096 53.7462C43.714 54.1021 44.8226 54.5674 45.8353 55.1422C46.8481 55.717 47.6556 56.4972 48.2578 57.4826C48.8874 58.4406 49.2021 59.6587 49.2021 61.1368C49.2021 62.7244 48.7779 64.1204 47.9293 65.3247C47.0808 66.5291 45.808 67.4598 44.1109 68.1167C42.4138 68.7737 40.3061 69.1021 37.7879 69.1021ZM61.5797 69.1021C59.7184 69.1021 58.1034 68.8284 56.7348 68.2809C55.3935 67.7335 54.2713 66.9671 53.368 65.9817C52.4921 64.9689 51.8351 63.7919 51.3972 62.4506C50.9592 61.1094 50.7402 59.6587 50.7402 58.0984C50.7402 56.4287 50.9592 54.8959 51.3972 53.4999C51.8625 52.1039 52.5468 50.8858 53.4501 49.8457C54.3534 48.8055 55.462 47.998 56.7758 47.4232C58.1171 46.8484 59.6499 46.561 61.3744 46.561C63.0988 46.561 64.5906 46.8484 65.8498 47.4232C67.1363 47.998 68.1764 48.8055 68.9702 49.8457C69.764 50.8585 70.2978 52.0492 70.5715 53.4178L65.7266 54.9369C65.6718 54.1158 65.4529 53.3904 65.0697 52.7608C64.6864 52.1039 64.1664 51.5975 63.5094 51.2417C62.8525 50.8858 62.0724 50.7079 61.1691 50.7079C60.2932 50.7079 59.5268 50.8858 58.8698 51.2417C58.2403 51.5701 57.7065 52.0492 57.2685 52.6787C56.8579 53.3083 56.5295 54.0747 56.2831 54.978C56.0642 55.8539 55.9547 56.8393 55.9547 57.9342C55.9547 59.4397 56.16 60.7262 56.5705 61.7937C56.9811 62.8612 57.6107 63.6961 58.4592 64.2983C59.3078 64.8731 60.3616 65.1605 61.6207 65.1605C62.743 65.1605 63.6463 64.9552 64.3306 64.5446C65.0423 64.1067 65.576 63.5455 65.9319 62.8612C66.3151 62.1769 66.5478 61.4242 66.6299 60.603L71.2284 61.6295C71.0642 62.7517 70.7494 63.7645 70.2841 64.6678C69.8188 65.5711 69.1755 66.3649 68.3543 67.0492C67.5605 67.7061 66.6025 68.2125 65.4802 68.5684C64.358 68.9242 63.0578 69.1021 61.5797 69.1021ZM72.8531 68.5684V55.2243V39.4168H78.0676V46.1094C78.0676 46.6842 78.0402 47.2727 77.9854 47.8749C77.9581 48.4771 77.9033 49.0929 77.8212 49.7225C77.7391 50.3521 77.6433 50.9816 77.5338 51.6112C77.4517 52.2408 77.3559 52.8703 77.2464 53.4999H78.1086C78.4918 52.0218 78.9845 50.7763 79.5867 49.7636C80.1889 48.7234 80.9553 47.9296 81.886 47.3822C82.844 46.8347 84.0073 46.561 85.376 46.561C87.8668 46.561 89.7282 47.4369 90.9599 49.1887C92.1917 50.9132 92.8076 53.5409 92.8076 57.072V68.5684H87.5931V57.811C87.5931 55.457 87.2373 53.7189 86.5256 52.5966C85.8413 51.4743 84.8011 50.9132 83.4052 50.9132C82.2555 50.9132 81.2975 51.269 80.5311 51.9807C79.7646 52.665 79.1761 53.582 78.7655 54.7316C78.355 55.8813 78.1086 57.1815 78.0265 58.6322V68.5684H72.8531ZM105.747 69.1021C103.639 69.1021 101.778 68.6778 100.163 67.8293C98.5478 66.9534 97.275 65.6806 96.3444 64.0109C95.4411 62.3138 94.9894 60.2335 94.9894 57.77C94.9894 55.2517 95.4548 53.1714 96.3854 51.5291C97.3434 49.8594 98.6299 48.6139 100.245 47.7928C101.86 46.9716 103.68 46.561 105.706 46.561C107.813 46.561 109.675 46.9853 111.29 47.8338C112.905 48.6824 114.177 49.9552 115.108 51.6523C116.039 53.322 116.504 55.4023 116.504 57.8931C116.504 60.4114 116.039 62.5054 115.108 64.1751C114.177 65.8448 112.891 67.0903 111.249 67.9114C109.634 68.7052 107.8 69.1021 105.747 69.1021ZM105.952 65.1605C107.102 65.1605 108.073 64.9005 108.867 64.3804C109.661 63.8329 110.263 63.0255 110.674 61.9579C111.112 60.8904 111.331 59.6176 111.331 58.1395C111.331 56.5793 111.098 55.2517 110.633 54.1568C110.195 53.0346 109.552 52.1723 108.703 51.5701C107.882 50.9679 106.842 50.6669 105.583 50.6669C104.488 50.6669 103.53 50.9406 102.708 51.488C101.887 52.0081 101.258 52.7882 100.82 53.8284C100.409 54.8685 100.204 56.155 100.204 57.6879C100.204 60.0966 100.71 61.9443 101.723 63.2308C102.763 64.5173 104.173 65.1605 105.952 65.1605ZM119.108 68.5684V39.4168H124.199V68.5684H119.108ZM132.929 69.1021C131.752 69.1021 130.699 68.8831 129.768 68.4452C128.837 67.9799 128.098 67.2955 127.551 66.3923C127.031 65.489 126.771 64.3667 126.771 63.0255C126.771 61.9032 126.976 60.9452 127.387 60.1514C127.824 59.3576 128.468 58.7143 129.316 58.2216C130.165 57.7015 131.219 57.2773 132.478 56.9488C133.737 56.593 135.215 56.2919 136.912 56.0455C137.843 55.9087 138.595 55.7718 139.17 55.6349C139.772 55.4981 140.21 55.2928 140.484 55.0191C140.758 54.718 140.895 54.28 140.895 53.7052C140.895 52.8566 140.594 52.1313 139.991 51.5291C139.417 50.8995 138.472 50.5847 137.158 50.5847C136.365 50.5847 135.598 50.7216 134.859 50.9953C134.147 51.269 133.532 51.707 133.012 52.3092C132.491 52.884 132.136 53.6504 131.944 54.6085L127.304 53.1714C127.605 52.0765 128.043 51.1322 128.618 50.3384C129.193 49.5172 129.905 48.8192 130.753 48.2444C131.602 47.6696 132.574 47.2453 133.668 46.9716C134.763 46.6979 135.968 46.561 137.282 46.561C139.28 46.561 140.922 46.8895 142.209 47.5464C143.495 48.176 144.453 49.1751 145.083 50.5437C145.712 51.8849 146.027 53.6231 146.027 55.7581V59.7818C146.027 60.7125 146.041 61.6842 146.068 62.697C146.123 63.6824 146.178 64.6815 146.232 65.6943C146.314 66.6797 146.41 67.6377 146.52 68.5684H141.88C141.771 67.8019 141.675 66.9808 141.593 66.1048C141.511 65.2289 141.442 64.3393 141.387 63.436H140.731C140.347 64.4762 139.8 65.4342 139.088 66.3101C138.377 67.1587 137.501 67.843 136.46 68.3631C135.448 68.8558 134.271 69.1021 132.929 69.1021ZM134.982 65.2837C135.53 65.2837 136.077 65.1879 136.625 64.9963C137.199 64.8047 137.761 64.5173 138.308 64.134C138.856 63.7508 139.362 63.2855 139.827 62.7381C140.293 62.1632 140.689 61.4926 141.018 60.7262L140.936 57.072L141.921 57.2362C141.456 57.6194 140.881 57.9205 140.197 58.1395C139.512 58.3585 138.787 58.5227 138.021 58.6322C137.282 58.7417 136.529 58.8786 135.762 59.0428C135.023 59.1796 134.353 59.3713 133.751 59.6176C133.148 59.8366 132.669 60.1651 132.314 60.603C131.958 61.0136 131.78 61.5884 131.78 62.3275C131.78 63.2581 132.081 63.9835 132.683 64.5036C133.285 65.0236 134.052 65.2837 134.982 65.2837ZM149.565 68.5684V57.811V47.0948H153.917L153.835 54.4853H154.574C154.821 52.7335 155.204 51.2827 155.724 50.1331C156.244 48.9561 156.969 48.0802 157.9 47.5053C158.831 46.9032 159.98 46.6021 161.349 46.6021C161.623 46.6021 161.91 46.6157 162.211 46.6431C162.54 46.6705 162.895 46.7389 163.279 46.8484L163.073 52.3092C162.635 52.145 162.184 52.0355 161.718 51.9807C161.281 51.8986 160.87 51.8575 160.487 51.8575C159.419 51.8575 158.489 52.1313 157.695 52.6787C156.928 53.2262 156.299 54.0063 155.806 55.0191C155.341 56.0045 154.985 57.1815 154.739 58.5501V68.5684H149.565Z" fill="#1E3D59"/>
<path d="M164.464 68.5684V46.8895H171.075V68.5684H164.464ZM167.79 43.8511C166.531 43.8511 165.559 43.5911 164.875 43.071C164.218 42.5236 163.889 41.7572 163.889 40.7718C163.889 39.7316 164.218 38.9515 164.875 38.4314C165.559 37.884 166.531 37.6102 167.79 37.6102C169.077 37.6102 170.048 37.884 170.705 38.4314C171.389 38.9515 171.732 39.7179 171.732 40.7307C171.732 41.7435 171.389 42.5236 170.705 43.071C170.048 43.5911 169.077 43.8511 167.79 43.8511ZM175.802 68.5684V55.1422H172.476V50.3384L178.389 50.5847V49.8046C177.348 49.613 176.486 49.2709 175.802 48.7782C175.145 48.2581 174.666 47.6559 174.365 46.9716C174.064 46.2873 173.913 45.5482 173.913 44.7544C173.913 43.55 174.228 42.5236 174.858 41.675C175.487 40.7991 176.377 40.1285 177.526 39.6632C178.676 39.1978 180.017 38.9652 181.55 38.9652C182.891 38.9652 184.109 39.1294 185.204 39.4579C186.299 39.759 187.175 40.1422 187.832 40.6075L187.462 46.561C186.778 46.0957 185.998 45.7125 185.122 45.4114C184.274 45.1103 183.48 44.9597 182.741 44.9597C181.974 44.9597 181.331 45.165 180.811 45.5756C180.291 45.9588 180.031 46.6021 180.031 47.5053C180.031 48.217 180.181 48.7508 180.483 49.1066C180.811 49.4625 181.208 49.7088 181.673 49.8457C182.139 49.9552 182.604 50.0099 183.069 50.0099H187.832V55.1422H182.248V68.5684H175.802ZM197.202 76.1231C196.107 76.1231 194.985 76.0273 193.835 75.8357C192.685 75.6441 191.59 75.3567 190.55 74.9735C189.537 74.6176 188.662 74.1386 187.922 73.5364L189.524 67.6651C190.482 68.5684 191.631 69.239 192.973 69.6769C194.341 70.1149 195.655 70.3339 196.914 70.3339C198.365 70.3339 199.556 70.0465 200.486 69.4716C201.444 68.9242 202.17 68.0757 202.662 66.926C203.183 65.749 203.484 64.2983 203.566 62.5738L203.771 59.0017H202.786C202.539 60.7809 202.101 62.2317 201.472 63.3539C200.87 64.4762 200.089 65.3111 199.131 65.8585C198.201 66.3786 197.092 66.6386 195.806 66.6386C194.218 66.6386 192.891 66.2417 191.823 65.4479C190.756 64.6541 189.948 63.4634 189.401 61.8758C188.88 60.2609 188.62 58.2627 188.62 55.8813V46.8895H195.272V54.2389C195.272 56.7572 195.518 58.5638 196.011 59.6587C196.531 60.7262 197.339 61.2599 198.433 61.2599C199.008 61.2599 199.528 61.0957 199.994 60.7672C200.459 60.4388 200.856 59.9734 201.184 59.3713C201.513 58.7691 201.759 58.0437 201.923 57.1952C202.115 56.3192 202.211 55.3475 202.211 54.28V46.8895H208.821V62.8202C208.821 64.5446 208.657 66.1185 208.329 67.5419C208.027 68.9653 207.562 70.2107 206.933 71.2782C206.33 72.3457 205.564 73.2353 204.633 73.947C203.703 74.6861 202.621 75.2335 201.39 75.5894C200.158 75.9452 198.762 76.1231 197.202 76.1231Z" fill="#17B890"/>
<path d="M22.5829 98.0059V88.1213H23.9608V98.0059H22.5829ZM23.1221 93.7675V92.5843H28.7982V93.7675H23.1221ZM23.1221 89.3344V88.1213H29.4422V89.3344H23.1221ZM30.2706 98.0059V87.5223H31.6334V98.0059H30.2706ZM36.5614 98.2006C35.8226 98.2006 35.1686 98.0408 34.5995 97.7213C34.0404 97.3918 33.6011 96.9226 33.2816 96.3135C32.9721 95.7045 32.8173 94.9656 32.8173 94.097C32.8173 93.1984 32.982 92.4545 33.3115 91.8655C33.651 91.2664 34.1003 90.8171 34.6594 90.5176C35.2185 90.218 35.8426 90.0683 36.5315 90.0683C37.2504 90.0683 37.8894 90.228 38.4485 90.5475C39.0176 90.857 39.4669 91.3163 39.7964 91.9254C40.1259 92.5244 40.2906 93.2683 40.2906 94.1569C40.2906 95.0455 40.1259 95.7893 39.7964 96.3884C39.4769 96.9875 39.0326 97.4417 38.4635 97.7513C37.9043 98.0508 37.2703 98.2006 36.5614 98.2006ZM36.6213 97.0773C37.1006 97.0773 37.51 96.9625 37.8494 96.7329C38.1989 96.4932 38.4635 96.1587 38.6432 95.7294C38.8329 95.3001 38.9277 94.7909 38.9277 94.2018C38.9277 93.5928 38.8279 93.0686 38.6282 92.6293C38.4385 92.18 38.1639 91.8355 37.8045 91.5959C37.4451 91.3463 37.0107 91.2215 36.5015 91.2215C36.0422 91.2215 35.6379 91.3313 35.2884 91.551C34.939 91.7706 34.6694 92.0951 34.4797 92.5244C34.29 92.9438 34.1951 93.458 34.1951 94.067C34.1951 95.0056 34.4098 95.7444 34.8391 96.2836C35.2784 96.8127 35.8725 97.0773 36.6213 97.0773ZM42.6671 98.0059L40.6153 90.263H42.0231L43.5507 96.8527H43.7903L45.4228 90.263H47.19L48.8374 96.8527H49.0621L50.5897 90.263H51.9825L49.9008 98.0059H47.9838L46.3813 91.4311H46.2016L44.5991 98.0059H42.6671ZM52.8001 98.0059V90.263H54.163V98.0059H52.8001ZM53.4891 88.9151C53.1696 88.9151 52.9299 88.8502 52.7702 88.7204C52.6104 88.5906 52.5306 88.3959 52.5306 88.1363C52.5306 87.8767 52.6104 87.682 52.7702 87.5522C52.9299 87.4224 53.1646 87.3575 53.4741 87.3575C53.7936 87.3575 54.0332 87.4224 54.193 87.5522C54.3527 87.682 54.4326 87.8767 54.4326 88.1363C54.4326 88.3859 54.3527 88.5806 54.193 88.7204C54.0332 88.8502 53.7986 88.9151 53.4891 88.9151ZM55.7805 98.0059V93.1984V90.263H57.0086L56.8738 92.7191H57.1284C57.2682 92.1101 57.4529 91.6109 57.6825 91.2215C57.9221 90.8321 58.2217 90.5425 58.5811 90.3528C58.9405 90.1631 59.3599 90.0683 59.8391 90.0683C60.6978 90.0683 61.3468 90.3778 61.7861 90.9968C62.2354 91.6059 62.46 92.5194 62.46 93.7375V98.0059H61.0822V93.8573C61.0822 92.9787 60.9424 92.3297 60.6628 91.9104C60.3933 91.491 59.9939 91.2814 59.4647 91.2814C58.9855 91.2814 58.5761 91.4311 58.2366 91.7307C57.9072 92.0302 57.6476 92.4246 57.4579 92.9138C57.2682 93.4031 57.1633 93.9322 57.1434 94.5013V98.0059H55.7805ZM66.8437 100.627C66.025 100.627 65.3511 100.562 64.8219 100.432C64.3027 100.312 63.9183 100.123 63.6687 99.863C63.4191 99.6133 63.2943 99.2988 63.2943 98.9194C63.2943 98.4601 63.474 98.0807 63.8334 97.7812C64.1929 97.4817 64.737 97.282 65.4659 97.1821V96.9126C64.9367 96.9126 64.5373 96.8477 64.2678 96.7179C63.9982 96.5881 63.8634 96.3934 63.8634 96.1338C63.8634 95.8642 63.9982 95.6396 64.2678 95.4598C64.5373 95.2701 64.9766 95.0954 65.5857 94.9357V94.6511C64.9766 94.6411 64.5124 94.4614 64.1929 94.1119C63.8734 93.7525 63.7136 93.2882 63.7136 92.7191C63.7136 92.2099 63.8484 91.7706 64.118 91.4012C64.3976 91.0218 64.7969 90.7322 65.3161 90.5325C65.8453 90.3229 66.4743 90.218 67.2032 90.218H70.8574V91.3712L68.4612 90.9968V91.2814C69.0403 91.4012 69.4846 91.6059 69.7941 91.8954C70.1036 92.175 70.2584 92.5544 70.2584 93.0336C70.2584 93.463 70.1336 93.8374 69.884 94.1569C69.6344 94.4764 69.2649 94.726 68.7757 94.9057C68.2965 95.0754 67.7024 95.1603 66.9935 95.1603C66.8537 95.1603 66.7039 95.1553 66.5442 95.1453C66.3944 95.1254 66.1947 95.0954 65.9451 95.0555C65.6756 95.2252 65.4559 95.38 65.2862 95.5197C65.1264 95.6595 65.0465 95.7843 65.0465 95.8942C65.0465 96.004 65.1214 96.0938 65.2712 96.1637C65.4309 96.2236 65.6206 96.2636 65.8403 96.2836C66.06 96.3035 66.2646 96.3135 66.4543 96.3135H68.2066C68.4063 96.3135 68.6559 96.3335 68.9554 96.3734C69.2649 96.4133 69.5695 96.4982 69.869 96.628C70.1785 96.7578 70.4381 96.9575 70.6478 97.2271C70.8574 97.4967 70.9623 97.8711 70.9623 98.3503C70.9623 98.8895 70.8025 99.3288 70.483 99.6683C70.1635 100.008 69.6993 100.252 69.0902 100.402C68.4812 100.552 67.7323 100.627 66.8437 100.627ZM66.8737 99.5035C67.5426 99.5035 68.0818 99.4586 68.4911 99.3687C68.9105 99.2889 69.215 99.1591 69.4047 98.9793C69.6044 98.7996 69.7043 98.57 69.7043 98.2904C69.7043 98.0308 69.6344 97.8311 69.4946 97.6914C69.3648 97.5416 69.2 97.4367 69.0004 97.3768C68.8007 97.3169 68.601 97.282 68.4013 97.272C68.2016 97.252 68.0319 97.2421 67.8921 97.2421H66.1398C65.5607 97.3719 65.1614 97.5516 64.9417 97.7812C64.722 98.0109 64.6122 98.2555 64.6122 98.5151C64.6122 98.7946 64.7121 99.0043 64.9117 99.1441C65.1114 99.2839 65.381 99.3787 65.7205 99.4286C66.0699 99.4786 66.4543 99.5035 66.8737 99.5035ZM67.0534 94.2767C67.6824 94.2767 68.1567 94.1469 68.4762 93.8873C68.7957 93.6277 68.9554 93.2783 68.9554 92.8389C68.9554 92.3697 68.7907 91.9853 68.4612 91.6857C68.1417 91.3762 67.6575 91.2215 67.0085 91.2215C66.3795 91.2215 65.8952 91.3662 65.5557 91.6558C65.2263 91.9453 65.0615 92.3198 65.0615 92.779C65.0615 93.0786 65.1364 93.3432 65.2862 93.5728C65.4459 93.7924 65.6706 93.9672 65.9601 94.097C66.2596 94.2168 66.6241 94.2767 67.0534 94.2767ZM77.3717 98.1556C76.6528 98.1556 76.1186 97.9609 75.7692 97.5715C75.4197 97.1821 75.245 96.5881 75.245 95.7893V91.4012H74.0768L74.0918 90.263H74.8257C75.0753 90.263 75.255 90.218 75.3648 90.1282C75.4846 90.0383 75.5545 89.8886 75.5745 89.6789L75.7243 88.5107H76.5629V90.263H78.7945V91.4162H76.5629V95.7594C76.5629 96.1587 76.6528 96.4483 76.8325 96.628C77.0222 96.7977 77.2918 96.8826 77.6413 96.8826C77.831 96.8826 78.0257 96.8577 78.2253 96.8077C78.435 96.7578 78.6397 96.658 78.8394 96.5082V97.8711C78.5498 97.9809 78.2803 98.0558 78.0306 98.0957C77.791 98.1357 77.5714 98.1556 77.3717 98.1556ZM82.9771 98.2006C82.2383 98.2006 81.5843 98.0408 81.0152 97.7213C80.4561 97.3918 80.0168 96.9226 79.6973 96.3135C79.3877 95.7045 79.233 94.9656 79.233 94.097C79.233 93.1984 79.3977 92.4545 79.7272 91.8655C80.0667 91.2664 80.516 90.8171 81.0751 90.5176C81.6342 90.218 82.2583 90.0683 82.9472 90.0683C83.6661 90.0683 84.3051 90.228 84.8642 90.5475C85.4333 90.857 85.8826 91.3163 86.2121 91.9254C86.5416 92.5244 86.7063 93.2683 86.7063 94.1569C86.7063 95.0455 86.5416 95.7893 86.2121 96.3884C85.8926 96.9875 85.4483 97.4417 84.8792 97.7513C84.32 98.0508 83.686 98.2006 82.9771 98.2006ZM83.037 97.0773C83.5163 97.0773 83.9256 96.9625 84.2651 96.7329C84.6146 96.4932 84.8792 96.1587 85.0589 95.7294C85.2486 95.3001 85.3434 94.7909 85.3434 94.2018C85.3434 93.5928 85.2436 93.0686 85.0439 92.6293C84.8542 92.18 84.5796 91.8355 84.2202 91.5959C83.8607 91.3463 83.4264 91.2215 82.9172 91.2215C82.4579 91.2215 82.0536 91.3313 81.7041 91.551C81.3547 91.7706 81.0851 92.0951 80.8954 92.5244C80.7057 92.9438 80.6108 93.458 80.6108 94.067C80.6108 95.0056 80.8255 95.7444 81.2548 96.2836C81.6941 96.8127 82.2882 97.0773 83.037 97.0773ZM89.0828 98.0059L87.031 90.263H88.4388L89.9664 96.8527H90.206L91.8385 90.263H93.6057L95.2531 96.8527H95.4778L97.0054 90.263H98.3982L96.3165 98.0059H94.3995L92.797 91.4311H92.6172L91.0148 98.0059H89.0828ZM100.939 98.2006C100.52 98.2006 100.14 98.1207 99.801 97.9609C99.4615 97.7912 99.1919 97.5466 98.9922 97.2271C98.7926 96.8976 98.6927 96.4832 98.6927 95.984C98.6927 95.6146 98.7576 95.2901 98.8874 95.0105C99.0272 94.731 99.2369 94.4914 99.5164 94.2917C99.806 94.092 100.175 93.9272 100.625 93.7974C101.074 93.6676 101.623 93.5578 102.272 93.468C102.642 93.418 102.941 93.3681 103.171 93.3182C103.41 93.2683 103.585 93.1884 103.695 93.0786C103.805 92.9588 103.86 92.784 103.86 92.5544C103.86 92.175 103.73 91.8555 103.47 91.5959C103.211 91.3363 102.801 91.2065 102.242 91.2065C101.953 91.2065 101.658 91.2564 101.359 91.3563C101.059 91.4561 100.794 91.6258 100.565 91.8655C100.345 92.0951 100.205 92.4196 100.145 92.8389L98.8874 92.4196C98.9673 92.0602 99.0971 91.7357 99.2768 91.4461C99.4665 91.1566 99.7061 90.912 99.9957 90.7123C100.285 90.5026 100.62 90.3428 100.999 90.233C101.388 90.1232 101.818 90.0683 102.287 90.0683C102.936 90.0683 103.475 90.1781 103.905 90.3978C104.344 90.6174 104.668 90.9569 104.878 91.4162C105.098 91.8655 105.208 92.4446 105.208 93.1534V94.8758C105.208 95.1853 105.213 95.5247 105.222 95.8942C105.242 96.2536 105.267 96.618 105.297 96.9875C105.327 97.3469 105.357 97.6864 105.387 98.0059H104.129C104.099 97.6864 104.069 97.3669 104.039 97.0474C104.019 96.7279 104.004 96.4084 103.994 96.0889H103.8C103.65 96.4583 103.45 96.8027 103.201 97.1222C102.951 97.4417 102.637 97.7013 102.257 97.901C101.888 98.1007 101.448 98.2006 100.939 98.2006ZM101.344 97.0923C101.563 97.0923 101.783 97.0573 102.003 96.9875C102.232 96.9176 102.457 96.8027 102.676 96.643C102.906 96.4832 103.121 96.2786 103.32 96.029C103.53 95.7793 103.715 95.4798 103.875 95.1304V93.6327L104.264 93.7076C104.104 93.8673 103.89 93.9871 103.62 94.067C103.36 94.1469 103.071 94.2118 102.751 94.2617C102.432 94.3116 102.112 94.3666 101.793 94.4265C101.473 94.4764 101.179 94.5563 100.909 94.6661C100.65 94.7659 100.44 94.9107 100.28 95.1004C100.12 95.2901 100.041 95.5497 100.041 95.8792C100.041 96.2786 100.16 96.5831 100.4 96.7928C100.64 96.9924 100.954 97.0923 101.344 97.0923ZM106.745 98.0059V93.8124V90.263H107.973L107.853 92.9588H108.108C108.197 92.3697 108.337 91.8605 108.527 91.4311C108.717 91.0018 108.966 90.6673 109.276 90.4277C109.595 90.1881 109.99 90.0683 110.459 90.0683C110.559 90.0683 110.674 90.0783 110.803 90.0982C110.933 90.1082 111.083 90.1432 111.253 90.2031L111.178 91.6258C111.028 91.5659 110.878 91.526 110.728 91.506C110.579 91.4761 110.434 91.4611 110.294 91.4611C109.905 91.4611 109.565 91.5859 109.276 91.8355C108.996 92.0851 108.762 92.4246 108.572 92.8539C108.382 93.2733 108.227 93.7475 108.108 94.2767V98.0059H106.745ZM114.586 98.2006C113.928 98.2006 113.363 98.0258 112.894 97.6764C112.425 97.3269 112.065 96.8477 111.816 96.2386C111.576 95.6296 111.456 94.9307 111.456 94.1419C111.456 93.3531 111.576 92.6542 111.816 92.0452C112.055 91.4361 112.405 90.9569 112.864 90.6074C113.323 90.258 113.888 90.0832 114.557 90.0832C115.106 90.0832 115.555 90.1981 115.904 90.4277C116.254 90.6574 116.533 90.9569 116.743 91.3263C116.963 91.6857 117.123 92.0801 117.222 92.5095H117.492C117.442 92.2199 117.397 91.9204 117.357 91.6109C117.317 91.2914 117.282 90.9818 117.252 90.6823C117.222 90.3728 117.207 90.0982 117.207 89.8586V87.5223H118.585V94.1868V98.0059H117.357L117.432 95.9091H117.192C117.073 96.3584 116.903 96.7578 116.683 97.1073C116.464 97.4467 116.184 97.7163 115.845 97.916C115.505 98.1057 115.086 98.2006 114.586 98.2006ZM114.901 97.0024C115.26 97.0024 115.585 96.9176 115.874 96.7478C116.164 96.5781 116.409 96.3584 116.608 96.0889C116.808 95.8093 116.958 95.5098 117.058 95.1903C117.167 94.8708 117.222 94.5612 117.222 94.2617V94.082C117.222 93.8723 117.192 93.6477 117.133 93.408C117.073 93.1584 116.983 92.9088 116.863 92.6592C116.753 92.4096 116.603 92.18 116.414 91.9703C116.234 91.7506 116.019 91.5809 115.77 91.4611C115.52 91.3313 115.24 91.2664 114.931 91.2664C114.482 91.2664 114.102 91.3962 113.793 91.6558C113.493 91.9054 113.264 92.2499 113.104 92.6892C112.954 93.1285 112.879 93.6227 112.879 94.1719C112.879 94.741 112.959 95.2402 113.119 95.6695C113.279 96.0889 113.508 96.4183 113.808 96.658C114.117 96.8876 114.482 97.0024 114.901 97.0024ZM123.085 98.2006C122.545 98.2006 122.066 98.1406 121.647 98.0208C121.227 97.911 120.878 97.7513 120.598 97.5416C120.319 97.3219 120.104 97.0623 119.954 96.7628C119.805 96.4633 119.725 96.1338 119.715 95.7743L120.868 95.4748C120.848 95.8043 120.928 96.0938 121.108 96.3435C121.297 96.5831 121.562 96.7678 121.901 96.8976C122.251 97.0274 122.67 97.0923 123.159 97.0923C123.748 97.0923 124.203 96.9924 124.522 96.7928C124.852 96.5931 125.017 96.3185 125.017 95.969C125.017 95.6895 124.927 95.4748 124.747 95.3251C124.567 95.1653 124.318 95.0405 123.998 94.9506C123.689 94.8508 123.319 94.7609 122.89 94.6811C122.53 94.6012 122.171 94.5113 121.812 94.4115C121.452 94.3116 121.123 94.1818 120.823 94.0221C120.534 93.8524 120.299 93.6327 120.119 93.3631C119.939 93.0935 119.85 92.7591 119.85 92.3597C119.85 91.8904 119.974 91.4861 120.224 91.1466C120.474 90.8071 120.828 90.5425 121.287 90.3528C121.747 90.1631 122.296 90.0683 122.935 90.0683C123.574 90.0683 124.118 90.1681 124.567 90.3678C125.017 90.5575 125.371 90.8271 125.631 91.1765C125.89 91.526 126.035 91.9354 126.065 92.4046L124.882 92.7042C124.872 92.3747 124.782 92.0951 124.612 91.8655C124.452 91.6358 124.223 91.4661 123.923 91.3563C123.624 91.2364 123.274 91.1765 122.875 91.1765C122.346 91.1765 121.926 91.2764 121.617 91.4761C121.307 91.6758 121.153 91.9503 121.153 92.2998C121.153 92.5594 121.242 92.769 121.422 92.9288C121.612 93.0885 121.866 93.2134 122.186 93.3032C122.505 93.3931 122.86 93.4829 123.249 93.5728C123.649 93.6527 124.028 93.7425 124.387 93.8424C124.757 93.9422 125.086 94.072 125.376 94.2318C125.665 94.3915 125.895 94.6062 126.065 94.8758C126.235 95.1353 126.319 95.4698 126.319 95.8792C126.319 96.3884 126.185 96.8177 125.915 97.1672C125.646 97.5066 125.266 97.7662 124.777 97.946C124.298 98.1157 123.734 98.2006 123.085 98.2006ZM130.546 98.0059V88.1213H131.924V98.0059H130.546ZM131.25 98.0059V96.8227H137.48V98.0059H131.25ZM131.25 93.5129V92.4046H136.776V93.5129H131.25ZM131.25 89.2895V88.1213H137.465V89.2895H131.25ZM137.746 98.0059L140.367 94.1419L137.716 90.263H139.319L141.146 93.3781H141.341L143.138 90.263H144.725L142.104 94.1419L144.785 98.0059H143.183L141.341 94.8758H141.146L139.349 98.0059H137.746ZM148.576 98.2006C147.897 98.2006 147.318 98.0907 146.838 97.8711C146.369 97.6514 145.985 97.3569 145.685 96.9875C145.396 96.618 145.181 96.1937 145.041 95.7144C144.911 95.2352 144.847 94.736 144.847 94.2168C144.847 93.6477 144.921 93.1135 145.071 92.6143C145.221 92.1151 145.446 91.6758 145.745 91.2964C146.055 90.907 146.434 90.6074 146.883 90.3978C147.343 90.1781 147.877 90.0683 148.486 90.0683C149.075 90.0683 149.594 90.1731 150.043 90.3828C150.493 90.5825 150.857 90.867 151.137 91.2364C151.426 91.6059 151.611 92.0452 151.691 92.5544L150.388 92.9138C150.368 92.6343 150.283 92.3647 150.133 92.1051C149.993 91.8455 149.784 91.6358 149.504 91.4761C149.225 91.3063 148.88 91.2215 148.471 91.2215C148.081 91.2215 147.747 91.2964 147.467 91.4461C147.198 91.5959 146.968 91.8056 146.779 92.0751C146.599 92.3447 146.459 92.6592 146.359 93.0187C146.269 93.3781 146.224 93.7675 146.224 94.1868C146.224 94.7659 146.304 95.2701 146.464 95.6995C146.634 96.1288 146.893 96.4633 147.243 96.7029C147.592 96.9425 148.042 97.0623 148.591 97.0623C149 97.0623 149.349 96.9924 149.639 96.8527C149.929 96.7029 150.158 96.4982 150.328 96.2386C150.498 95.969 150.608 95.6545 150.657 95.2951L151.915 95.5797C151.846 96.009 151.716 96.3884 151.526 96.7179C151.336 97.0474 151.097 97.3219 150.807 97.5416C150.518 97.7513 150.183 97.911 149.804 98.0208C149.434 98.1406 149.025 98.2006 148.576 98.2006ZM156.046 98.2006C155.437 98.2006 154.898 98.1107 154.429 97.931C153.97 97.7413 153.58 97.4717 153.261 97.1222C152.941 96.7728 152.702 96.3584 152.542 95.8792C152.382 95.3999 152.302 94.8608 152.302 94.2617C152.302 93.6527 152.382 93.0935 152.542 92.5843C152.702 92.0751 152.936 91.6308 153.246 91.2514C153.555 90.872 153.935 90.5825 154.384 90.3828C154.833 90.1731 155.348 90.0683 155.927 90.0683C156.436 90.0683 156.9 90.1531 157.319 90.3229C157.739 90.4926 158.093 90.7572 158.383 91.1166C158.682 91.4661 158.907 91.9104 159.057 92.4495C159.207 92.9787 159.266 93.6027 159.236 94.3216L153.156 94.3666V93.438L158.413 93.3931L157.948 94.0221C157.998 93.3931 157.938 92.8739 157.769 92.4645C157.599 92.0552 157.354 91.7456 157.035 91.536C156.725 91.3263 156.356 91.2215 155.927 91.2215C155.467 91.2215 155.063 91.3413 154.714 91.5809C154.364 91.8205 154.095 92.165 153.905 92.6143C153.725 93.0636 153.635 93.6077 153.635 94.2467C153.635 95.1653 153.84 95.8692 154.249 96.3584C154.659 96.8377 155.268 97.0773 156.076 97.0773C156.386 97.0773 156.655 97.0424 156.885 96.9725C157.125 96.8926 157.324 96.7878 157.484 96.658C157.654 96.5182 157.789 96.3584 157.889 96.1787C157.998 95.999 158.083 95.8043 158.143 95.5946L159.341 95.8792C159.251 96.2386 159.112 96.5631 158.922 96.8527C158.742 97.1322 158.513 97.3719 158.233 97.5715C157.963 97.7712 157.649 97.926 157.29 98.0358C156.93 98.1456 156.516 98.2006 156.046 98.2006ZM160.426 98.0059V87.5223H161.789V98.0059H160.426ZM163.392 98.0059V87.5223H164.755V98.0059H163.392ZM169.683 98.2006C169.074 98.2006 168.535 98.1107 168.066 97.931C167.607 97.7413 167.217 97.4717 166.898 97.1222C166.578 96.7728 166.339 96.3584 166.179 95.8792C166.019 95.3999 165.939 94.8608 165.939 94.2617C165.939 93.6527 166.019 93.0935 166.179 92.5843C166.339 92.0751 166.573 91.6308 166.883 91.2514C167.192 90.872 167.572 90.5825 168.021 90.3828C168.47 90.1731 168.984 90.0683 169.564 90.0683C170.073 90.0683 170.537 90.1531 170.956 90.3229C171.376 90.4926 171.73 90.7572 172.02 91.1166C172.319 91.4661 172.544 91.9104 172.694 92.4495C172.843 92.9787 172.903 93.6027 172.873 94.3216L166.793 94.3666V93.438L172.05 93.3931L171.585 94.0221C171.635 93.3931 171.575 92.8739 171.406 92.4645C171.236 92.0552 170.991 91.7456 170.672 91.536C170.362 91.3263 169.993 91.2215 169.564 91.2215C169.104 91.2215 168.7 91.3413 168.35 91.5809C168.001 91.8205 167.731 92.165 167.542 92.6143C167.362 93.0636 167.272 93.6077 167.272 94.2467C167.272 95.1653 167.477 95.8692 167.886 96.3584C168.295 96.8377 168.905 97.0773 169.713 97.0773C170.023 97.0773 170.292 97.0424 170.522 96.9725C170.762 96.8926 170.961 96.7878 171.121 96.658C171.291 96.5182 171.426 96.3584 171.525 96.1787C171.635 95.999 171.72 95.8043 171.78 95.5946L172.978 95.8792C172.888 96.2386 172.749 96.5631 172.559 96.8527C172.379 97.1322 172.149 97.3719 171.87 97.5715C171.6 97.7712 171.286 97.926 170.926 98.0358C170.567 98.1456 170.153 98.2006 169.683 98.2006ZM174.063 98.0059V93.1984V90.263H175.291L175.157 92.7191H175.411C175.551 92.1101 175.736 91.6109 175.965 91.2215C176.205 90.8321 176.504 90.5425 176.864 90.3528C177.223 90.1631 177.643 90.0683 178.122 90.0683C178.981 90.0683 179.63 90.3778 180.069 90.9968C180.518 91.6059 180.743 92.5194 180.743 93.7375V98.0059H179.365V93.8573C179.365 92.9787 179.225 92.3297 178.946 91.9104C178.676 91.491 178.277 91.2814 177.748 91.2814C177.268 91.2814 176.859 91.4311 176.519 91.7307C176.19 92.0302 175.93 92.4246 175.741 92.9138C175.551 93.4031 175.446 93.9322 175.426 94.5013V98.0059H174.063ZM185.561 98.2006C184.882 98.2006 184.303 98.0907 183.824 97.8711C183.354 97.6514 182.97 97.3569 182.67 96.9875C182.381 96.618 182.166 96.1937 182.026 95.7144C181.897 95.2352 181.832 94.736 181.832 94.2168C181.832 93.6477 181.907 93.1135 182.056 92.6143C182.206 92.1151 182.431 91.6758 182.73 91.2964C183.04 90.907 183.419 90.6074 183.868 90.3978C184.328 90.1781 184.862 90.0683 185.471 90.0683C186.06 90.0683 186.579 90.1731 187.029 90.3828C187.478 90.5825 187.842 90.867 188.122 91.2364C188.411 91.6059 188.596 92.0452 188.676 92.5544L187.373 92.9138C187.353 92.6343 187.268 92.3647 187.118 92.1051C186.979 91.8455 186.769 91.6358 186.489 91.4761C186.21 91.3063 185.865 91.2215 185.456 91.2215C185.067 91.2215 184.732 91.2964 184.453 91.4461C184.183 91.5959 183.953 91.8056 183.764 92.0751C183.584 92.3447 183.444 92.6592 183.344 93.0187C183.254 93.3781 183.21 93.7675 183.21 94.1868C183.21 94.7659 183.289 95.2701 183.449 95.6995C183.619 96.1288 183.878 96.4633 184.228 96.7029C184.577 96.9425 185.027 97.0623 185.576 97.0623C185.985 97.0623 186.335 96.9924 186.624 96.8527C186.914 96.7029 187.143 96.4982 187.313 96.2386C187.483 95.969 187.593 95.6545 187.643 95.2951L188.901 95.5797C188.831 96.009 188.701 96.3884 188.511 96.7179C188.322 97.0474 188.082 97.3219 187.792 97.5416C187.503 97.7513 187.168 97.911 186.789 98.0208C186.419 98.1406 186.01 98.2006 185.561 98.2006ZM193.032 98.2006C192.423 98.2006 191.883 98.1107 191.414 97.931C190.955 97.7413 190.565 97.4717 190.246 97.1222C189.926 96.7728 189.687 96.3584 189.527 95.8792C189.367 95.3999 189.287 94.8608 189.287 94.2617C189.287 93.6527 189.367 93.0935 189.527 92.5843C189.687 92.0751 189.921 91.6308 190.231 91.2514C190.54 90.872 190.92 90.5825 191.369 90.3828C191.818 90.1731 192.333 90.0683 192.912 90.0683C193.421 90.0683 193.885 90.1531 194.305 90.3229C194.724 90.4926 195.078 90.7572 195.368 91.1166C195.667 91.4661 195.892 91.9104 196.042 92.4495C196.192 92.9787 196.252 93.6027 196.222 94.3216L190.141 94.3666V93.438L195.398 93.3931L194.934 94.0221C194.984 93.3931 194.924 92.8739 194.754 92.4645C194.584 92.0552 194.34 91.7456 194.02 91.536C193.711 91.3263 193.341 91.2215 192.912 91.2215C192.452 91.2215 192.048 91.3413 191.699 91.5809C191.349 91.8205 191.08 92.165 190.89 92.6143C190.71 93.0636 190.62 93.6077 190.62 94.2467C190.62 95.1653 190.825 95.8692 191.234 96.3584C191.644 96.8377 192.253 97.0773 193.062 97.0773C193.371 97.0773 193.641 97.0424 193.87 96.9725C194.11 96.8926 194.31 96.7878 194.469 96.658C194.639 96.5182 194.774 96.3584 194.874 96.1787C194.984 95.999 195.068 95.8043 195.128 95.5946L196.326 95.8792C196.237 96.2386 196.097 96.5631 195.907 96.8527C195.727 97.1322 195.498 97.3719 195.218 97.5715C194.949 97.7712 194.634 97.926 194.275 98.0358C193.915 98.1456 193.501 98.2006 193.032 98.2006Z" fill="#1E3D59"/>
<path d="M113.531 8.2486C114.505 9.115 115.992 9.02268 116.853 8.04239C117.714 7.0621 117.622 5.56506 116.648 4.69865C115.674 3.83224 114.187 3.92456 113.326 4.90485C112.465 5.88514 112.557 7.38219 113.531 8.2486Z" fill="#17B890"/>
</svg>
